<?xml version="1.0" encoding="UTF-8" standalone="no"?>
<!-- Created with Inkscape (http://www.inkscape.org/) -->

<svg
   xmlns:dc="http://purl.org/dc/elements/1.1/"
   xmlns:cc="http://creativecommons.org/ns#"
   xmlns:rdf="http://www.w3.org/1999/02/22-rdf-syntax-ns#"
   xmlns:svg="http://www.w3.org/2000/svg"
   xmlns="http://www.w3.org/2000/svg"
   xmlns:sodipodi="http://sodipodi.sourceforge.net/DTD/sodipodi-0.dtd"
   xmlns:inkscape="http://www.inkscape.org/namespaces/inkscape"
   width="300"
   height="300"
   viewBox="0 0 300 300.00001"
   id="svg2"
   version="1.1"
   inkscape:version="0.91 r13725"
   sodipodi:docname="seattlefemministjs.svg">
  <defs
     id="defs4">
    <inkscape:path-effect
       effect="spiro"
       id="path-effect4205"
       is_visible="true" />
  </defs>
  <sodipodi:namedview
     id="base"
     pagecolor="#ffffff"
     bordercolor="#666666"
     borderopacity="1.0"
     inkscape:pageopacity="0.0"
     inkscape:pageshadow="2"
     inkscape:zoom="1.4"
     inkscape:cx="148.31026"
     inkscape:cy="145.50901"
     inkscape:document-units="px"
     inkscape:current-layer="layer1"
     showgrid="false"
     units="px"
     inkscape:window-width="1242"
     inkscape:window-height="755"
     inkscape:window-x="0"
     inkscape:window-y="1"
     inkscape:window-maximized="1"
     borderlayer="true" />
  <metadata
     id="metadata7">
    <rdf:RDF>
      <cc:Work
         rdf:about="">
        <dc:format>image/svg+xml</dc:format>
        <dc:type
           rdf:resource="http://purl.org/dc/dcmitype/StillImage" />
        <dc:title></dc:title>
      </cc:Work>
    </rdf:RDF>
  </metadata>
  <g
     inkscape:label="Layer 1"
     inkscape:groupmode="layer"
     id="layer1"
     transform="translate(0,-752.36216)">
    <text
       xml:space="preserve"
       style="font-style:italic;font-variant:normal;font-weight:normal;font-stretch:normal;font-size:6.25px;line-height:125%;font-family:Zapfino;-inkscape-font-specification:'Zapfino Italic';letter-spacing:0px;word-spacing:0px;fill:#000000;fill-opacity:1;stroke:none;stroke-width:1px;stroke-linecap:butt;stroke-linejoin:miter;stroke-opacity:1"
       x="150"
       y="692.36218"
       id="text4136"
       sodipodi:linespacing="125%"><tspan
         sodipodi:role="line"
         id="tspan4138"
         x="150"
         y="692.36218" /></text>
    <text
       xml:space="preserve"
       style="font-style:italic;font-variant:normal;font-weight:normal;font-stretch:normal;font-size:6.25px;line-height:206.99982643%;font-family:Zapfino;-inkscape-font-specification:'Zapfino Italic';letter-spacing:0px;word-spacing:0px;fill:#000000;fill-opacity:1;stroke:none;stroke-width:1px;stroke-linecap:butt;stroke-linejoin:miter;stroke-opacity:1"
       x="65.714287"
       y="616.64789"
       id="text4140"
       sodipodi:linespacing="206.99983%"><tspan
         sodipodi:role="line"
         id="tspan4142"
         x="65.714287"
         y="616.64789" /></text>
    <g
       id="g4161"
       transform="translate(-137.38075,187.88837)">
      <text
         sodipodi:linespacing="166%"
         id="text4166"
         y="710.93359"
         x="277.85715"
         style="font-style:normal;font-weight:normal;font-size:25px;line-height:165.99999666%;font-family:sans-serif;letter-spacing:0px;word-spacing:0px;fill:#000000;fill-opacity:1;stroke:none;stroke-width:1px;stroke-linecap:butt;stroke-linejoin:miter;stroke-opacity:1"
         xml:space="preserve"><tspan
           style="font-style:italic;font-variant:normal;font-weight:normal;font-stretch:normal;font-family:Zapfino;-inkscape-font-specification:'Zapfino Italic'"
           y="710.93359"
           x="277.85715"
           id="tspan4168"
           sodipodi:role="line">Seattle </tspan></text>
      <text
         sodipodi:linespacing="166%"
         id="text4170"
         y="733.79065"
         x="179.28572"
         style="font-style:normal;font-weight:normal;font-size:25px;line-height:165.99999666%;font-family:sans-serif;letter-spacing:0px;word-spacing:0px;fill:#000000;fill-opacity:1;stroke:none;stroke-width:1px;stroke-linecap:butt;stroke-linejoin:miter;stroke-opacity:1"
         xml:space="preserve"><tspan
           style="font-style:italic;font-variant:normal;font-weight:normal;font-stretch:normal;font-family:Zapfino;-inkscape-font-specification:'Zapfino Italic'"
           y="733.79065"
           x="179.28572"
           id="tspan4172"
           sodipodi:role="line">Feminist</tspan></text>
      <text
         sodipodi:linespacing="166%"
         id="text4174"
         y="772.36218"
         x="237.85715"
         style="font-style:normal;font-weight:normal;font-size:25px;line-height:165.99999666%;font-family:sans-serif;letter-spacing:0px;word-spacing:0px;fill:#000000;fill-opacity:1;stroke:none;stroke-width:1px;stroke-linecap:butt;stroke-linejoin:miter;stroke-opacity:1"
         xml:space="preserve"><tspan
           style="font-style:italic;font-variant:normal;font-weight:normal;font-stretch:normal;font-family:Zapfino;-inkscape-font-specification:'Zapfino Italic'"
           y="772.36218"
           x="237.85715"
           id="tspan4176"
           sodipodi:role="line">JS</tspan></text>
    </g>
    <path
       style="fill:#ff1554;fill-opacity:1;fill-rule:evenodd;stroke:#000000;stroke-width:1px;stroke-linecap:butt;stroke-linejoin:miter;stroke-opacity:1"
       d="M 414.28571,680.2193 Z"
       id="path4891"
       inkscape:connector-curvature="0" />
    <g
       id="g4179">
      <g
         transform="translate(-137.38075,187.88837)"
         id="g4169">
        <path
           style="opacity:1;fill:#9affe6;fill-opacity:1;fill-rule:evenodd;stroke:#9affe6;stroke-opacity:1"
           id="path4895"
           d="m 181.17414,711.45117 c -0.73315,-0.007 -1.46641,-0.004 -2.1996,-0.001 -0.5435,0.0536 -1.04611,-0.0418 -1.56735,-0.17825 -0.61634,-0.141 -1.25432,-0.15222 -1.88382,-0.17029 -0.58731,-0.0118 -1.17483,-0.0121 -1.76223,-0.0108 -0.52311,10e-4 -1.04621,0.003 -1.56932,0.004 -0.52988,7.7e-4 -1.05974,-9.6e-4 -1.58962,-10e-4 -0.58333,0.002 -1.16663,-0.002 -1.74997,7.6e-4 -0.59463,0.018 -1.19431,-0.0499 -1.7822,0.051 -0.62587,0.19336 -1.28456,0.19023 -1.92165,0.31836 -0.68144,0.11482 -1.34617,0.2735 -2.002,0.49025 -0.49899,0.20711 -1.06323,0.2857 -1.54211,0.53519 -0.45462,0.24135 -0.98277,0.25899 -1.46418,0.4161 -0.27095,0.052 -0.50184,0.20222 -0.74599,0.32199 -0.0732,0.0359 -0.28975,0.14977 -0.21936,0.10853 1.47749,-0.86563 1.66135,-1.02201 1.08729,-0.57979 -0.91231,0.75691 -2.00638,1.25125 -3.02856,1.84374 0.4245,-0.24463 1.70916,-0.95808 1.27352,-0.73388 -0.58876,0.303 -1.15469,0.64847 -1.73328,0.97048 -0.19714,0.10973 -0.74493,0.3874 -0.49074,0.23443 2.15116,-1.29455 1.55069,-0.90471 1.07615,-0.59158 -0.89257,0.65363 -1.92651,1.01397 -2.88215,1.53346 -0.0938,0.0409 -0.3687,0.1758 -0.28127,0.12271 1.11571,-0.67746 2.69102,-1.47272 -0.50281,0.29373 -0.23628,0.13069 -0.5087,0.20415 -0.75154,0.32513 -0.0858,0.0357 -0.33688,0.15525 -0.25734,0.1072 3.07506,-1.85752 -0.28373,0.22654 -1.28306,0.65741 -0.52421,0.17625 -1.0431,0.36847 -1.57455,0.5251 -0.54392,0.0975 -1.05988,0.2883 -1.59661,0.41869 -0.4982,0.10324 -1.00722,0.11973 -1.51398,0.13286 -0.54732,0.004 -1.09468,0.002 -1.64202,0.001 -0.34609,-9.6e-4 -0.17756,-8.6e-4 -0.50561,-4.1e-4 0,0 1.4264,-1.0359 1.4264,-1.0359 l 0,0 c 0.32604,0.002 0.15805,10e-4 0.50396,0.002 0.547,0.002 1.09406,0.006 1.64097,-0.007 0.49944,-0.0148 1.00112,-0.0441 1.48875,-0.16137 0.53237,-0.13472 1.05163,-0.31433 1.58971,-0.42666 0.52201,-0.17257 1.04959,-0.33055 1.55819,-0.53843 0.36266,-0.16763 0.21551,-0.0965 0.56619,-0.27049 0.0826,-0.0409 0.32654,-0.17056 0.24747,-0.12324 -2.82333,1.68956 -0.30774,0.0699 0.72842,-0.37707 0.14876,-0.0667 1.32069,-0.68381 0.7428,-0.33259 -2.79988,1.70167 -0.2521,0.032 0.78424,-0.41508 0.25621,-0.14016 0.50267,-0.26238 0.77558,-0.36602 0.0654,-0.0248 0.25463,-0.11329 0.19547,-0.076 -0.58011,0.36509 -1.8542,1.08488 -1.09756,0.65637 0.72216,-0.52459 0.27199,-0.2082 1.94212,-1.14669 0.15874,-0.0892 0.64659,-0.33394 0.49104,-0.23931 -0.68945,0.41942 -3.29138,1.91683 0.44573,-0.24316 0.53386,-0.30547 1.74573,-0.97546 -0.6481,0.39225 -0.58181,0.33241 1.31687,-0.73315 0.68099,-0.46913 0.77187,-0.75099 1.88303,-1.22795 2.90474,-1.58805 0.4894,-0.12421 0.99811,-0.19595 1.44998,-0.43669 0.50779,-0.19506 1.03805,-0.33636 1.55133,-0.51702 0.65909,-0.20378 1.32924,-0.34733 2.00859,-0.46681 0.64373,-0.10598 1.29629,-0.15429 1.9309,-0.31556 0.59781,-0.0621 1.19982,-0.0234 1.80018,-0.0345 0.58263,0.003 1.16522,-0.001 1.74784,7.8e-4 0.53125,-3.1e-4 1.06249,-0.002 1.59374,-0.002 0.52155,-4.8e-4 1.0431,7e-5 1.56465,-2.7e-4 0.58798,4.2e-4 1.17608,-0.003 1.76383,0.0174 0.63983,0.0261 1.28858,0.0399 1.91269,0.19693 0.50871,0.12993 1.01067,0.17971 1.53692,0.14521 0.73431,0.003 1.4687,0.006 2.20299,-10e-4 0,0 -1.42479,1.03516 -1.42479,1.03516 z"
           inkscape:connector-curvature="0" />
        <path
           style="opacity:1;fill:#9affe6;fill-opacity:1;fill-rule:evenodd;stroke:#9affe6;stroke-opacity:1"
           id="path4979"
           d="m 387.05808,682.66395 c 0.93194,-0.27984 1.84734,-0.60627 2.75323,-0.9617 1.03657,-0.35372 2.08719,-0.6711 3.161,-0.88991 1.0235,-0.17164 2.06394,-0.17724 3.09871,-0.18817 1.01961,-0.005 2.03924,-0.002 3.05885,-0.002 0.70311,0.0496 1.34488,0.31886 1.96669,0.63121 0.71906,0.39744 1.47857,0.70881 2.22712,1.04496 0.78772,0.36994 1.54146,0.8057 2.32665,1.18116 0.70545,0.31839 1.34951,0.75244 2.04629,1.08735 0.51915,0.30714 1.05767,0.6021 1.62607,0.80704 0.67409,0.1983 1.33707,0.40763 2.03361,0.51134 0.85604,0.2043 1.72365,0.32904 2.60007,0.39735 0.79745,0.0532 1.59691,0.0566 2.39576,0.06 0.68307,0.002 1.36613,-0.002 2.04919,-0.003 0.64268,-0.002 1.28536,-3.8e-4 1.92804,-2.1e-4 0.77613,-4.2e-4 1.55226,10e-4 2.32839,10e-4 0.76013,-7.9e-4 1.52026,-8.1e-4 2.28039,-7.4e-4 0.61363,0.0722 1.18731,-0.10653 1.77893,-0.22571 0.5122,-0.0909 0.99426,-0.29374 1.50671,-0.3966 0.24087,-0.0787 0.4759,-0.17051 0.71692,-0.24868 0,0 -0.83492,0.64848 -0.83492,0.64848 l 0,0 c -0.24082,0.0818 -0.47827,0.17375 -0.72424,0.23945 -0.50809,0.11382 -0.99203,0.31212 -1.50615,0.39558 -0.59233,0.12646 -1.17342,0.26775 -1.78658,0.20455 -0.75943,6e-5 -1.51886,3e-5 -2.27829,-7.8e-4 -0.77713,0 -1.55426,10e-4 -2.33138,10e-4 -0.64346,3.6e-4 -1.2869,0.002 -1.93035,0.002 -0.68231,9.8e-4 -1.36462,10e-4 -2.04693,9.4e-4 -0.79898,-0.003 -1.59854,-0.0141 -2.39586,-0.0697 -0.87924,-0.0729 -1.74741,-0.20782 -2.60883,-0.40048 -0.70025,-0.11169 -1.36954,-0.32523 -2.04807,-0.52724 -0.56749,-0.21656 -1.10875,-0.50628 -1.63015,-0.81682 -0.69201,-0.34332 -1.33886,-0.77175 -2.04501,-1.08782 -0.77978,-0.38305 -1.53409,-0.81576 -2.3229,-1.1802 -0.74906,-0.33989 -1.51146,-0.64991 -2.23391,-1.04558 -0.6106,-0.30516 -1.24569,-0.55759 -1.93599,-0.59345 -1.01676,-0.006 -2.03357,-0.0102 -3.05032,-0.002 -1.03231,0.0139 -2.07074,0.0233 -3.09008,0.20665 -1.06868,0.22431 -2.1166,0.53964 -3.14664,0.90081 -0.91346,0.35245 -1.83601,0.67529 -2.76783,0.97443 0,0 0.83181,-0.65411 0.83181,-0.65411 z"
           inkscape:connector-curvature="0" />
        <g
           id="g4154">
          <path
             inkscape:connector-curvature="0"
             d="m 235.28756,705.54259 c -1.73012,-0.0166 -3.4604,-0.0158 -5.19059,-0.0147 -2.16466,0.007 -4.31149,0.0986 -6.44325,-0.31939 -2.2833,-0.52523 -4.53207,-1.15566 -6.73074,-1.96327 -1.89773,-0.94746 -3.71384,-2.0686 -5.36771,-3.39663 -1.88186,-1.64746 -3.85813,-3.1351 -6.0517,-4.34021 -2.31698,-1.26026 -4.5062,-2.68476 -6.95167,-3.7005 -2.22309,-0.87963 -4.59515,-1.12803 -6.96059,-1.25735 -2.0384,-0.0721 -4.07882,-0.0529 -6.11811,-0.0438 -2.24177,0.12122 -4.43363,0.57697 -6.53162,1.3669 -0.32582,0.15787 -0.64867,0.32201 -0.97746,0.47359 -1.06679,0.49184 -0.95558,0.37987 -1.9952,0.91947 -0.31723,0.16465 -1.24912,0.6954 -0.93718,0.52094 2.43352,-1.36095 2.72237,-1.55251 1.23249,-0.64284 -1.5822,1.12192 -3.11792,2.30499 -4.64842,3.49528 -1.11794,0.91943 -2.0915,1.99606 -3.08003,3.04909 -0.93992,1.05636 -2.04028,1.94508 -3.09539,2.88095 -0.94848,0.67792 -1.71376,1.5299 -2.50349,2.37403 -0.88064,0.84009 -1.73938,1.7047 -2.46103,2.68692 -0.6358,0.8804 -1.4051,1.64859 -2.17092,2.41379 -0.61935,0.70827 -1.34828,1.25842 -2.11218,1.79481 -0.86489,0.62902 -1.64329,1.36338 -2.47707,2.03061 0,0 -3.25596,1.30115 -3.25596,1.30115 l 0,0 c 0.85179,-0.64111 1.6133,-1.3887 2.46043,-2.03732 0.744,-0.55147 1.53242,-1.00948 2.1274,-1.74182 0.76929,-0.75545 1.54274,-1.51192 2.20989,-2.3616 0.68075,-1.02206 1.53833,-1.89998 2.42979,-2.73785 0.83657,-0.80405 1.49971,-1.77548 2.50609,-2.40462 1.07019,-0.90783 2.14425,-1.82057 3.10396,-2.8463 1.00261,-1.06055 1.97947,-2.15171 3.08256,-3.11061 1.54893,-1.17537 3.07499,-2.37974 4.64155,-3.53362 2.81123,-1.69467 5.59522,-3.43304 8.65079,-4.65687 2.13219,-0.74349 4.34622,-1.19055 6.60807,-1.27531 2.04391,-0.008 4.08915,-0.034 6.13162,0.0619 2.38469,0.16084 4.77128,0.45028 7.0006,1.37141 2.44466,1.04196 4.65398,2.46319 6.98307,3.72544 2.19177,1.24166 4.18573,2.74259 6.10345,4.37362 1.64057,1.28558 3.40501,2.42096 5.29133,3.31422 2.18527,0.79927 4.43171,1.40256 6.70171,1.91187 2.12709,0.36283 4.26903,0.26302 6.42051,0.25825 1.74373,10e-4 3.48753,0.002 5.23119,-0.0148 0,0 -2.85619,2.07515 -2.85619,2.07515 z"
             id="path4827"
             style="opacity:1;fill:#9affe6;fill-opacity:1;fill-rule:evenodd;stroke:none;stroke-opacity:1" />
          <path
             inkscape:connector-curvature="0"
             d="m 334.71244,682.03887 c 1.59872,-0.0162 3.20342,0.1017 4.79329,-0.0875 1.6369,-0.17367 3.19789,-0.70079 4.8134,-0.99171 1.61203,-0.38423 3.17228,-0.79161 4.62856,-1.59657 1.41691,-0.77954 2.86556,-1.49605 4.34422,-2.14982 1.04954,-0.52374 6.91516,-3.81761 1.70491,-0.89841 1.75182,-1.1545 3.40713,-2.44506 5.16211,-3.59357 1.75844,-1.13967 3.47595,-2.3381 5.23182,-3.48154 2.54984,-1.6436 5.06937,-3.5222 7.9387,-4.55854 1.55058,-0.47645 3.14941,-0.76483 4.66127,-1.3595 1.37011,-0.63232 2.7954,-0.99261 4.28622,-1.17679 1.48443,-0.13192 2.97754,-0.10834 4.46637,-0.10881 1.51086,0.002 3.02171,0.007 4.53256,0.009 1.59579,-0.1729 3.06305,0.37874 4.56926,0.79836 1.55668,0.52224 3.08681,1.12152 4.60053,1.75778 1.76051,0.75556 3.28883,1.78693 4.7584,2.99699 1.34637,1.41797 2.53332,2.98617 3.78092,4.49589 1.23078,1.68474 2.46343,3.36773 3.93555,4.85066 1.71747,1.71706 3.71094,3.04963 5.86488,4.14434 2.32037,1.27216 4.9057,1.83665 7.46032,2.42466 1.811,0.42195 3.65786,0.58926 5.51102,0.66246 0,0 -2.84246,2.04442 -2.84246,2.04442 l 0,0 c -1.85438,-0.10485 -3.70043,-0.29369 -5.50839,-0.74162 -2.57163,-0.61015 -5.16381,-1.21258 -7.50007,-2.49872 -2.18108,-1.11849 -4.19867,-2.48727 -5.94252,-4.22516 -1.47774,-1.49324 -2.71499,-3.18553 -3.9591,-4.8745 -1.22247,-1.50094 -2.41896,-3.0377 -3.75383,-4.43406 -1.44068,-1.19937 -2.97237,-2.17878 -4.71261,-2.90246 -1.5083,-0.61631 -3.014,-1.2447 -4.57194,-1.72686 -1.49125,-0.42205 -2.94787,-0.87163 -4.52317,-0.71451 -1.50878,-0.003 -3.01754,-0.01 -4.52632,-0.0121 -1.48376,0.002 -2.97307,-0.0121 -4.44971,0.15426 -1.46699,0.2137 -2.86268,0.62917 -4.22198,1.22686 -1.52834,0.54647 -3.12531,0.84828 -4.66482,1.36441 -1.6084,0.64477 -0.78097,0.35979 1.45677,-1.03143 0.2655,-0.16506 -0.54707,0.30316 -0.81378,0.46627 -0.57736,0.35307 -1.14662,0.71948 -1.71127,1.09255 -0.30077,0.19872 -0.59274,0.41045 -0.88911,0.61568 -1.75585,1.14684 -3.48186,2.33086 -5.23396,3.48396 -1.76654,1.12685 -3.41658,2.41822 -5.15082,3.59417 -2.53013,1.49229 -5.05119,3.01733 -7.68269,4.32728 -1.46644,0.67259 -2.91229,1.38553 -4.32618,2.16336 -1.48621,0.74886 -3.07641,1.1516 -4.69525,1.517 -1.6107,0.32425 -3.18672,0.81992 -4.83015,0.96577 -1.61197,0.13277 -3.23088,0.0452 -4.84714,0.0834 0,0 2.85619,-2.07515 2.85619,-2.07515 z"
             id="path4833"
             style="opacity:1;fill:#9affe6;fill-opacity:1;fill-rule:evenodd;stroke:none;stroke-opacity:1" />
          <path
             inkscape:connector-curvature="0"
             d="m 308.85644,676.47783 c 0.10548,-0.7491 0.2245,-1.49518 0.29533,-2.2488 0.0509,-0.62616 0.0647,-1.25449 0.0654,-1.88246 -0.069,-0.57197 -0.29138,-1.11783 -0.56808,-1.619 -0.42157,-0.70584 -0.92249,-1.33181 -1.51075,-1.90345 -0.67211,-0.59735 -1.42033,-1.07389 -2.21913,-1.4811 -0.93468,-0.54698 -1.98491,-0.80763 -3.01759,-1.0957 -1.07702,-0.27047 -2.17144,-0.47952 -3.2678,-0.65686 -1.27286,-0.16771 -2.55825,-0.19569 -3.84023,-0.2164 -1.07545,-0.0141 -2.151,-0.005 -3.2265,-0.004 -1.01292,0.043 -1.76512,0.18964 -2.64132,0.69841 -0.45638,0.21887 -0.33153,0.15331 -0.78613,0.39473 -0.11984,0.0637 -0.4778,0.25754 -0.35839,0.19307 2.07854,-1.12232 1.02129,-0.53198 0.39222,-0.0257 -0.75939,0.65186 -1.57529,1.23054 -2.28136,1.94195 -0.45699,0.48498 -0.79993,1.05128 -1.17472,1.59661 -0.28715,0.454 -0.62953,0.86288 -0.90373,1.32477 -0.33839,0.67577 -0.56564,1.40513 -0.80535,2.12088 -0.28574,1.14976 -0.73069,2.2509 -1.23884,3.31831 -0.45994,1.15979 -0.93514,2.27917 -1.59251,3.34298 -0.66126,1.06548 -1.41562,2.06319 -2.26239,2.98728 -1.04846,1.13401 -2.27208,2.07813 -3.44293,3.07747 -1.35941,1.29584 -3.01804,2.12809 -4.60633,3.09489 -0.28463,0.17326 0.58713,-0.31532 0.88069,-0.47297 -1.65699,1.03125 -3.40684,1.8876 -5.20505,2.63743 -0.88276,0.29911 -1.76103,0.628 -2.68461,0.77266 -1.19901,0.126 -2.40918,0.17127 -3.61229,0.0942 -1.39475,-0.14729 -2.26789,-1.00728 -3.20317,-1.96145 0,0 1.41998,-0.87067 1.41998,-0.87067 l 0,0 c 0.98768,0.95772 1.7508,1.69327 3.1798,1.829 1.20224,0.0541 2.41195,0.0188 3.60613,-0.13863 0.90696,-0.17572 1.78259,-0.48337 2.6505,-0.79544 0.60023,-0.25366 1.20248,-0.50965 1.79006,-0.79171 0.008,-0.004 1.3016,-0.66111 1.29734,-0.65706 -0.23688,0.22517 -0.56008,0.337 -0.84012,0.50549 0.68515,-0.4104 1.37337,-0.8157 2.05543,-1.2312 0.27909,-0.17001 -0.55019,0.35671 -0.84642,0.4947 -0.22358,0.10415 0.42223,-0.25539 0.6272,-0.39258 0.41994,-0.28107 0.89316,-0.63917 1.28646,-0.9558 0.2104,-0.16939 0.41465,-0.34628 0.62197,-0.51942 1.16013,-1.00295 2.38963,-1.93056 3.43985,-3.0553 0.85413,-0.90781 1.60136,-1.903 2.26998,-2.95455 0.3301,-0.52778 0.6792,-1.04942 0.92267,-1.62533 0.15885,-0.37579 0.26485,-0.77241 0.42235,-1.14877 0.0782,-0.18682 0.16993,-0.36767 0.2549,-0.5515 0.50904,-1.05591 0.97121,-2.14467 1.23392,-3.29078 0.22873,-0.72441 0.47125,-1.4511 0.77298,-2.14798 0.27515,-0.47095 0.59819,-0.8878 0.90118,-1.34099 0.40035,-0.53382 0.70985,-1.13496 1.17335,-1.62463 0.69834,-0.7282 1.51612,-1.30822 2.28076,-1.96332 1.13348,-0.93212 2.40585,-1.66765 3.72416,-2.30729 0.84652,-0.44391 1.73346,-0.60566 2.68926,-0.62471 1.07264,-0.002 2.14531,0.002 3.21788,0.0141 1.28834,0.0248 2.57963,0.0639 3.8584,0.23431 1.09931,0.18379 2.19915,0.38638 3.27647,0.6734 1.04535,0.28738 2.10134,0.56962 3.04668,1.1195 0.80802,0.42436 1.57404,0.90869 2.25595,1.52004 0.58947,0.59132 1.1004,1.23076 1.53726,1.9443 0.30073,0.52204 0.52566,1.09832 0.61865,1.69578 -0.009,0.63372 -0.0113,1.26788 -0.067,1.8998 -0.0674,0.74653 -0.17975,1.4867 -0.28951,2.22779 0,0 -1.57283,0.8014 -1.57283,0.8014 z"
             id="path4983"
             style="opacity:1;fill:#9affe6;fill-opacity:1;fill-rule:evenodd;stroke:#9affe6;stroke-opacity:1" />
          <path
             inkscape:connector-curvature="0"
             id="path4985"
             d="M 310.71429,675.93359 325,678.07645 l -15,2.5 z"
             style="fill:#ffcc00;fill-rule:evenodd;stroke:#ffcc00;stroke-width:1px;stroke-linecap:butt;stroke-linejoin:miter;stroke-opacity:1" />
          <path
             inkscape:connector-curvature="0"
             d="m 310.52292,676.00706 c -0.23963,0.19138 -0.48419,0.36819 -0.67034,0.61497 -0.10772,0.21543 -0.29376,0.36854 -0.45147,0.54449 -0.15474,0.2076 -0.26154,0.45364 -0.34844,0.69714 -0.0703,0.22847 -0.0813,0.46721 -0.0887,0.70428 -0.003,0.24738 -0.003,0.49486 -0.002,0.74227 0.009,0.28231 -0.02,0.56668 0.0188,0.84694 0.0384,0.0912 0.0635,0.19495 0.171,0.22206 0.0422,0.0106 0.16481,-0.0524 0.12664,-0.0316 -0.23712,0.12979 -0.47214,0.2634 -0.70821,0.3951 0.14563,-0.13506 0.13419,-0.37187 0.14313,-0.55616 0.008,-0.28772 0.006,-0.57556 0.003,-0.86334 -0.0137,-0.27342 0.0241,-0.54659 0.1189,-0.80341 0.0919,-0.22741 0.22283,-0.43441 0.31367,-0.66206 0.0821,-0.23333 0.15312,-0.46954 0.22258,-0.70686 0.72419,-0.8955 0.92841,-0.50347 0.80159,-0.005 -0.0779,0.25448 -0.10686,0.51815 -0.12521,0.78246 -0.0514,0.28817 -0.19561,0.55496 -0.33249,0.81159 -0.12246,0.22574 -0.17586,0.47076 -0.20331,0.72334 -0.0326,0.21041 0.0163,0.41033 0.0869,0.60753 0.006,0.006 0.0258,0.0156 0.0179,0.0195 -0.9932,0.48476 -0.73339,0.49532 -0.71938,-0.1826 -0.005,-0.3831 -0.003,-0.76182 0.0485,-1.14168 0.0242,-0.36328 0.2022,-0.67809 0.34397,-1.00421 0.16737,-0.33364 0.83241,-1.05214 1.06241,-0.57534 0.048,0.24649 0.0408,0.50132 0.0415,0.75165 7e-4,0.25085 -9e-5,0.50172 -0.001,0.75257 0.0158,0.28407 -0.0306,0.56124 -0.1228,0.8292 -0.10489,0.25733 -0.31371,0.4449 -0.45652,0.67695 -0.17146,0.38545 -0.79809,0.9735 -1.14329,0.58278 -0.13459,-0.20861 -0.12402,-0.47203 -0.13174,-0.7114 0.0121,-0.2516 -0.0196,-0.49076 -0.0804,-0.73391 -0.0643,-0.20649 -0.084,-0.42203 -0.0944,-0.63688 -0.008,-0.266 -0.007,-0.53215 -0.008,-0.79824 3.6e-4,-0.0485 7.2e-4,-0.0969 0.001,-0.14539 0,0 0.78321,-0.39894 0.78321,-0.39894 l 0,0 c 2.4e-4,0.0482 4.7e-4,0.0963 7.1e-4,0.14444 -0.002,0.26471 -0.002,0.52954 0.006,0.79415 0.01,0.20948 0.0254,0.41982 0.0858,0.62188 0.0615,0.24999 0.10814,0.4923 0.0864,0.75173 0.007,0.21521 -0.008,0.4602 0.10617,0.65065 0.23093,0.19411 0.85483,-0.47309 -0.59802,0.44301 -0.0239,0.0151 0.0583,-0.008 0.0811,-0.0252 0.0478,-0.0355 0.0796,-0.13076 0.10029,-0.17907 0.1234,-0.24438 0.34309,-0.41709 0.46257,-0.66628 0.1093,-0.25135 0.14916,-0.5269 0.13645,-0.79991 -2e-5,-0.25087 0.002,-0.50174 0.003,-0.75262 -10e-4,-0.23864 0.004,-0.47954 -0.0315,-0.71607 -0.0224,-0.0783 0.007,0.004 -0.0154,-0.008 0.23948,-0.14018 0.47895,-0.28036 0.71843,-0.42054 0.0652,-0.0385 -0.0656,0.0169 -0.12507,0.0919 -0.0268,0.0338 -0.0456,0.0732 -0.0684,0.1098 -0.13462,0.32454 -0.33312,0.62599 -0.35927,0.98602 -0.0539,0.37615 -0.0606,0.74997 -0.0492,1.12985 -8.9e-4,0.10174 -0.009,2.2118 -0.85575,0.98798 -0.0691,-0.20881 -0.13557,-0.42046 -0.10143,-0.64262 0.0228,-0.26234 0.0709,-0.51809 0.19096,-0.7555 0.13221,-0.25062 0.27458,-0.50336 0.34846,-0.77784 0.0152,-0.26854 0.0391,-0.53745 0.1145,-0.79682 0.16605,-0.5837 -0.21327,-0.21636 0.81875,-0.78185 0.0112,-0.006 -0.016,0.0198 -0.024,0.0297 -0.0784,0.23666 -0.14429,0.47733 -0.22275,0.71358 -0.0877,0.23182 -0.21248,0.43952 -0.31268,0.6651 -0.11829,0.23637 -0.14304,0.50995 -0.1354,0.77121 -5.5e-4,0.28892 0.003,0.5779 -0.002,0.86678 -0.006,0.21279 -0.007,0.43579 -0.10288,0.63081 -0.50276,0.28665 -0.93255,0.78805 -1.19254,0.14696 -0.0453,-0.28319 -0.0175,-0.57134 -0.0264,-0.8574 7e-5,-0.24808 -0.004,-0.49616 -3.4e-4,-0.74424 0.005,-0.2446 0.0154,-0.49024 0.0779,-0.72821 0.0799,-0.25342 0.19642,-0.50367 0.3355,-0.72734 0.14523,-0.18572 0.35092,-0.32155 0.4553,-0.53783 0.16945,-0.26106 0.40657,-0.4506 0.65993,-0.62734 0,0 0.81686,-0.33836 0.81686,-0.33836 z"
             id="path4991"
             style="opacity:1;fill:#ffcc00;fill-opacity:1;fill-rule:evenodd;stroke:#ffcc00;stroke-opacity:1" />
        </g>
      </g>
      <path
         inkscape:connector-curvature="0"
         d="m 15.575315,901.89501 c 1.47992,-0.92081 0.13717,0.005 -0.20616,0.21815 -0.42601,0.29782 -0.88399,0.53266 -1.3418,0.78339 -0.23358,0.12792 0.92429,-0.52945 0.69508,-0.39387 -0.79641,0.47108 -0.70655,0.42161 -1.16098,0.65949 1.83742,-1.04736 -0.20774,0.11964 -0.31238,0.17811 -0.20193,0.11282 -0.43101,0.18256 -0.64056,0.28247 1.77736,-1.00722 -0.33872,0.28133 -0.96971,0.417 -0.40462,0.0992 -1.552,0.76525 -0.0348,-0.0734 -0.0462,0.0328 -0.0899,0.0694 -0.1386,0.0983 -1.4248,0.84327 -1.21867,0.68038 -0.30186,0.18477 0.053,-0.0286 -0.10045,0.0667 -0.15285,0.0965 -0.33969,0.19268 -0.67931,0.38563 -1.0232396,0.57063 -0.23527,0.12655 0.4648096,-0.2635 0.6972096,-0.39525 -3.0491098,1.83168 1.78194,-1.08048 -1.4739796,0.88005 -0.22916,0.13798 0.46491,-0.26478 0.69984,-0.39269 0.0541,-0.0294 -0.10466,0.0648 -0.157,0.0972 -0.64396,0.37521 -1.3037302,0.7042 -1.9590602,1.05366 -0.15029,0.0806 -0.30313,0.15633 -0.45532,0.23325 0,0 0.77791,-0.62293 0.77791,-0.62293 l 0,0 c 0.15167,-0.0771 0.3033,-0.15422 0.45331,-0.23448 0.3601502,-0.1933 1.7796498,-0.93838 0.25397,-0.0708 0.0528,-0.031 0.1057602,-0.0618 0.1584702,-0.093 3.3576596,-1.9867 -0.5214902,0.31764 0.46675,-0.29016 0.33065,-0.20335 0.6717296,-0.39003 0.9958996,-0.60356 0.22234,-0.14645 -0.4600696,0.26809 -0.6900996,0.40213 3.3814196,-1.95307 -0.51231,0.32442 0.4803996,-0.26651 0.33255,-0.19795 0.66702,-0.39269 0.99775,-0.59367 0.18215,-0.1107 -1.11164,0.67754 -0.55669,0.31467 0.57939,-0.34925 1.10315,-0.72543 1.75537,-0.90048 0.15738,-0.0429 0.30693,-0.0924 0.45495,-0.16221 0.0543,-0.0256 0.21153,-0.11361 0.16023,-0.0824 -0.36623,0.22285 -1.87198,1.0822 0.34114,-0.18712 0.16069,-0.0737 0.32615,-0.13671 0.48671,-0.21026 0.0509,-0.0233 0.19777,-0.10493 0.14995,-0.0758 -0.19174,0.11689 -2.12585,1.2402 0.31381,-0.17893 0.048,-0.0258 0.19066,-0.10508 0.14388,-0.0772 -0.2286,0.13594 -0.92028,0.53371 -0.68941,0.40167 3.32774,-1.90322 -0.84037,0.51178 0.6472,-0.39134 0.65638,-0.36209 1.19383,-0.93878 1.91543,-1.19979 0,0 -0.78074,0.62452 -0.78074,0.62452 z"
         id="path4995"
         style="opacity:1;fill:#9affe6;fill-opacity:1;fill-rule:evenodd;stroke:#9affe6;stroke-opacity:1" />
      <path
         inkscape:connector-curvature="0"
         d="m 22.491065,895.30968 c -0.10948,0.21897 -0.24505,0.42459 -0.39217,0.61986 -0.1685,0.19966 -0.34629,0.39105 -0.51924,0.58686 -0.1765,0.20826 -0.3686,0.40118 -0.56347,0.59182 -0.17672,0.18713 -0.37997,0.3459 -0.58024,0.50658 -0.1868,0.16907 -0.40748,0.2932 -0.59588,0.45934 -0.18272,0.16737 -0.3234,0.37164 -0.4764,0.5648 -0.14641,0.18143 -0.27182,0.37881 -0.40788,0.56833 -0.1217,0.15978 -0.2486,0.31536 -0.37151,0.47422 -0.10564,0.12527 -0.21353,0.25193 -0.33255,0.36508 -0.10561,0.11152 -0.23232,0.19883 -0.35675,0.28759 -0.12205,0.0702 -0.24387,0.14075 -0.36614,0.21054 -0.0446,0.0254 -0.17955,0.0997 -0.13496,0.0742 0.55136,-0.31475 0.004,0.007 -0.19264,0.11009 0.45545,-0.29174 0.2259,-0.12776 0.13166,-0.0519 0,0 -0.32652,0.13098 -0.32652,0.13098 l 0,0 c 0.15469,-0.12223 0.24588,-0.22344 0.46914,-0.29951 0.02,-0.0108 0.0797,-0.044 0.0602,-0.0323 -0.0771,0.0463 -0.3105,0.18189 -0.23309,0.13605 0.12135,-0.0719 0.24298,-0.14325 0.36491,-0.2141 0.0444,-0.0258 0.17875,-0.10078 0.13494,-0.0741 -0.0775,0.0472 -0.15625,0.0924 -0.23438,0.1386 0.12587,-0.0854 0.2528,-0.17339 0.35859,-0.2834 0.12348,-0.10735 0.22649,-0.2391 0.3359,-0.35984 0.12297,-0.1591 0.24962,-0.31474 0.37295,-0.47357 0.13736,-0.18951 0.26382,-0.38672 0.40823,-0.57028 0.15453,-0.19324 0.29408,-0.3993 0.47468,-0.57015 0.18404,-0.17223 0.4086,-0.29088 0.59507,-0.46143 0.20093,-0.15921 0.40453,-0.31741 0.58187,-0.5033 0.19315,-0.19193 0.39034,-0.37968 0.56481,-0.58972 0.17208,-0.19618 0.34901,-0.38756 0.52002,-0.58465 0.14833,-0.19007 0.28329,-0.39397 0.38884,-0.61109 0,0 0.32205,-0.14571 0.32205,-0.14571 z"
         id="path4999"
         style="opacity:1;fill:#9affe6;fill-opacity:1;fill-rule:evenodd;stroke:#9affe6;stroke-opacity:1" />
    </g>
  </g>
</svg>
